<svg width="70" height="70" viewBox="0 0 70 70" fill="none" xmlns="http://www.w3.org/2000/svg">
<path d="M70 35C70 15.67 54.33 0 35 0C15.67 0 0 15.67 0 35C0 54.33 15.67 70 35 70C54.33 70 70 54.33 70 35Z" fill="#FA4A0C"/>
<path fill-rule="evenodd" clip-rule="evenodd" d="M44.0132 17.0296C43.3337 17.7084 43.7511 21.6788 44.674 23.321C45.7394 25.2162 48.388 26.7553 50.5843 26.7553C51.8596 26.7553 51.9629 26.8763 52.2343 28.6841C52.7434 32.0803 51.566 32.4622 48.7081 29.8284C45.1096 26.5119 39.9456 24.4999 35.0403 24.503C30.7417 24.5055 27.9485 25.7389 23.9163 29.4133C22.0605 31.1053 19.4864 33.1642 18.1972 33.9891C15.3282 35.8241 14.3369 37.2052 14.7393 38.8072C15.6884 42.5885 20.7229 48.3085 24.9176 50.3724C27.5479 51.6666 28.1655 51.7943 31.7373 51.7799C40.0289 51.7464 44.8273 48.3235 47.6331 40.4402C48.151 38.9852 49.1483 37.1235 49.8501 36.3033C50.5512 35.4828 51.1254 34.4899 51.1262 34.0965C51.1266 33.7038 51.5835 33.2675 52.1414 33.1272C53.6886 32.7392 54.2621 31.0087 53.8735 27.8984C53.6907 26.4313 53.5366 25.0417 53.5318 24.8099C53.5264 24.5788 54.4233 24.4447 55.5239 24.5121C57.1721 24.6136 57.7739 24.4259 58.9368 23.4478C61.3397 21.4258 61.7395 18.5368 59.4465 19.764C58.7583 20.1324 58.094 20.1272 56.8135 19.7436L56.28 19.5837C55.7781 19.4331 55.6482 18.7828 56.0541 18.451C56.8171 17.8269 56.8989 17.5622 56.4639 17.1197C55.7525 16.3965 53.8132 17.7574 52.8384 19.6634C52.1964 20.9185 52.0883 20.9641 51.0962 20.405C50.5142 20.0772 49.2045 19.6003 48.1858 19.3454C47.0413 19.0593 46.0657 18.4729 45.6313 17.8109C44.9106 16.7103 44.5207 16.5223 44.0132 17.0296ZM51.2382 23.2887L51.4837 23.7729C51.7366 24.2708 51.419 24.8687 50.8648 24.938C48.5923 25.2218 45.4649 22.9199 45.4649 20.9624C45.4649 20.3958 45.7864 20.4068 47.9694 21.0474C50.0608 21.6609 50.5995 22.0307 51.2382 23.2887ZM57.8158 21.8616C58.3951 22.1909 57.1342 22.822 55.8818 22.8293C54.472 22.8377 54.0426 22.4326 54.6651 21.6827C55.1053 21.1523 56.729 21.2446 57.8158 21.8616ZM40.1582 26.8397C41.2411 27.1098 42.3046 27.7155 42.6674 28.2695C43.411 29.4042 43.6003 31.9845 43.1074 34.2673C42.8169 35.613 42.8756 35.9003 43.4414 35.9003C44.4805 35.9003 45.0295 34.4807 45.0295 31.7921C45.0295 30.4589 45.1902 29.3682 45.3866 29.3682C46.1906 29.3682 49.3849 32.5468 49.3849 33.3471C49.3849 33.8214 48.8209 34.9328 48.1315 35.8172C47.442 36.7012 46.3479 38.8416 45.7006 40.5735C44.3239 44.2582 41.6151 47.5374 38.9596 48.7345C37.9811 49.1756 37.106 49.4569 37.015 49.3595C36.9234 49.2622 37.0494 48.2027 37.2949 47.0051C37.6575 45.2367 37.6073 44.5112 37.0298 43.1416C36.4469 41.7595 36.2062 41.5481 35.6971 41.9706C35.2114 42.3738 35.1752 42.7709 35.5319 43.794C36.0829 45.3743 35.7466 47.79 34.7683 49.2833C34.0867 50.323 33.8881 50.3693 30.9372 50.176C28.7251 50.0309 27.1641 49.635 25.5388 48.8076C24.2808 48.1675 23.252 47.5413 23.252 47.4157C23.252 47.2908 23.6442 46.4199 24.1231 45.481C25.4286 42.9229 25.1937 38.9488 23.7372 38.9488C23.1415 38.9488 23.019 39.433 23.0261 41.7628C23.0321 43.9054 22.8466 44.7625 22.2481 45.3556C21.492 46.1042 21.4114 46.0755 20.1632 44.6101C18.4529 42.6024 16.2926 38.9192 16.2874 38.0025C16.2851 37.5836 17.5381 36.4399 19.2354 35.3112C20.8595 34.2321 23.4563 32.1901 25.0065 30.7738C27.6033 28.4013 29.2957 27.1908 30.0147 27.1908C30.1726 27.1908 30.2344 28.3142 30.152 29.6878C30.0278 31.7719 30.1263 32.2088 30.7496 32.3298C31.6996 32.5137 31.855 28.2768 31.855 28.2768C31.855 28.2768 31.7113 26.3547 32.7814 26.1704C34.2419 25.9194 37.7445 26.2374 40.1582 26.8397Z" fill="white" stroke="white"/>
</svg>
